<?xml version="1.0" encoding="UTF-8"?>
<svg width="82px" height="82px" viewBox="0 0 82 82" version="1.1" xmlns="http://www.w3.org/2000/svg" xmlns:xlink="http://www.w3.org/1999/xlink">
    <!-- Generator: Sketch 42 (36781) - http://www.bohemiancoding.com/sketch -->
    <title>Group 3</title>
    <desc>Created with Sketch.</desc>
    <defs></defs>
    <g id="010_Cart" stroke="none" stroke-width="1" fill="none" fill-rule="evenodd">
        <g id="010_Cart-popup" transform="translate(-233.000000, -107.000000)">
            <g id="Group-2-Copy" transform="translate(99.000000, 71.000000)">
                <g id="Group-3" transform="translate(135.000000, 37.000000)">
                    <circle id="Oval" stroke="#E1E5EA" stroke-width="2" cx="40" cy="40" r="40"></circle>
                    <path d="M31.6726991,46.7477746 L54.153551,46.7477746 C56.7026666,46.7477746 58.7822083,44.6682329 58.7822083,42.1191173 L58.7822083,32.6605567 L58.7822083,32.6270157 L58.7822083,32.5599337 C58.7822083,32.5431632 58.7822083,32.5263927 58.773823,32.5096222 C58.773823,32.4928517 58.7654378,32.4676959 58.7654378,32.4509254 C58.7654378,32.434155 58.7570525,32.4173845 58.7570525,32.400614 C58.7486673,32.3838435 58.7486673,32.367073 58.740282,32.3419172 C58.7318968,32.3251467 58.7318968,32.3083762 58.7235115,32.2916057 C58.7151263,32.2748352 58.7151263,32.2580647 58.7067411,32.2412942 C58.6983558,32.2245237 58.6899706,32.2077532 58.6815853,32.1825975 C58.6732001,32.165827 58.6648148,32.1490565 58.6564296,32.1406712 L58.6312738,32.0903598 C58.6228886,32.0735893 58.6145033,32.065204 58.6061181,32.0484335 C58.5977328,32.031663 58.5809623,32.0148925 58.5725771,31.998122 C58.5641918,31.9813515 58.5558066,31.9729663 58.5390361,31.9561958 C58.5306508,31.9394253 58.5138803,31.93104 58.5054951,31.9142695 C58.4971098,31.897499 58.4803393,31.8891138 58.4719541,31.8723433 C58.4635688,31.8555728 58.4467983,31.8471875 58.4384131,31.8388023 L58.3964868,31.796876 C58.3797164,31.7884908 58.3713311,31.7717203 58.3545606,31.7633351 C58.3377901,31.7549498 58.3210196,31.7381793 58.3042491,31.7297941 C58.2874786,31.7214088 58.2790934,31.7130236 58.2623229,31.7046383 C58.2455524,31.6962531 58.2287819,31.6878678 58.2120114,31.6710973 C58.1952409,31.6627121 58.1784704,31.6543268 58.1616999,31.6459416 C58.1449294,31.6375563 58.1281589,31.6291711 58.1113884,31.6207858 C58.0946179,31.6124006 58.0778474,31.6040153 58.0610769,31.5956301 C58.0443064,31.5872448 58.0275359,31.5872448 58.0107654,31.5788596 C57.9939949,31.5704743 57.9688392,31.5620891 57.9520687,31.5620891 C57.9352982,31.5620891 57.9185277,31.5537038 57.9101424,31.5537038 C57.8849867,31.5453186 57.8682162,31.5453186 57.8430604,31.5453186 C57.8346752,31.5453186 57.8262899,31.5369333 57.8095194,31.5369333 L29.3164442,27.6042517 L29.3164442,23.6296438 C29.3164442,23.5877175 29.3164442,23.5457913 29.308059,23.5122503 C29.308059,23.503865 29.308059,23.4954798 29.2996737,23.4787093 C29.2996737,23.4535535 29.2912885,23.4283978 29.2912885,23.4032421 C29.2829032,23.3780863 29.2829032,23.3613158 29.274518,23.3361601 C29.274518,23.3193896 29.2661327,23.3110043 29.2661327,23.2942338 C29.2577475,23.2690781 29.2493622,23.2439223 29.240977,23.2187666 C29.240977,23.2103813 29.2325917,23.1936108 29.2325917,23.1852256 C29.2242065,23.1600698 29.2158212,23.1432993 29.1990507,23.1181436 C29.1906655,23.1097583 29.1906655,23.0929878 29.1822802,23.0846026 C29.173895,23.0678321 29.1655097,23.0510616 29.1487392,23.0342911 C29.140354,23.0175206 29.1319687,23.0091354 29.1235835,22.9923649 C29.1151982,22.9755944 29.106813,22.9672091 29.0984277,22.9504386 C29.0900425,22.9336681 29.073272,22.9168976 29.0648867,22.9001271 C29.0565015,22.8917419 29.0481162,22.8833566 29.039731,22.8749714 C29.0229605,22.8582009 29.00619,22.8414304 28.9894195,22.8246599 C28.9810343,22.8162746 28.972649,22.8078894 28.9642638,22.7995041 C28.9474933,22.7827336 28.9307228,22.7659631 28.905567,22.7491927 C28.8971818,22.7408074 28.8804113,22.7324222 28.872026,22.7240369 C28.8552555,22.7072664 28.838485,22.6988812 28.8217145,22.6821107 C28.7965588,22.6653402 28.771403,22.6485697 28.7546325,22.6401844 C28.7462473,22.6317992 28.737862,22.6317992 28.7294768,22.6234139 C28.6959358,22.6066434 28.6540096,22.5898729 28.6204686,22.5731024 L22.4405402,19.9736753 C21.8619581,19.7305031 21.1995234,19.9988311 20.9563512,20.5774132 C20.713179,21.1559954 20.981507,21.81843 21.5600891,22.0616023 L27.0440418,24.3759309 L27.0440418,29.5077031 L27.0440418,30.3210723 L27.0440418,36.5596973 L27.0440418,42.1358877 L27.0440418,49.1794967 C27.0440418,51.5273663 28.804944,53.4727441 31.0773464,53.7662278 C30.6664693,54.4538182 30.423297,55.258802 30.423297,56.1140974 C30.423297,58.6380573 32.477683,60.684058 34.9932576,60.684058 C37.5088322,60.684058 39.5632182,58.629672 39.5632182,56.1140974 C39.5632182,55.2755725 39.3368165,54.4789739 38.9343245,53.808154 L49.1140165,53.808154 C48.7115245,54.4873591 48.4851228,55.2755725 48.4851228,56.1140974 C48.4851228,58.6380573 50.5395088,60.684058 53.0550834,60.684058 C55.570658,60.684058 57.625044,58.629672 57.625044,56.1140974 C57.625044,53.5985228 55.570658,51.5441368 53.0550834,51.5441368 L31.6726991,51.5441368 C30.3646003,51.5441368 29.308059,50.4792102 29.308059,49.1794967 L29.308059,46.1104957 C29.9956494,46.5129876 30.8090185,46.7477746 31.6726991,46.7477746 L31.6726991,46.7477746 Z M37.3075863,56.1057122 C37.3075863,57.38027 36.2678154,58.4116556 35.0016429,58.4116556 C33.7354703,58.4116556 32.6956994,57.3718847 32.6956994,56.1057122 C32.6956994,54.8395396 33.7354703,53.7997688 35.0016429,53.7997688 C36.2678154,53.7997688 37.3075863,54.8311543 37.3075863,56.1057122 L37.3075863,56.1057122 Z M55.3694121,56.1057122 C55.3694121,57.38027 54.3296412,58.4116556 53.0634686,58.4116556 C51.7972961,58.4116556 50.7575252,57.3718847 50.7575252,56.1057122 C50.7575252,54.8395396 51.7972961,53.7997688 53.0634686,53.7997688 C54.3296412,53.7997688 55.3694121,54.8311543 55.3694121,56.1057122 L55.3694121,56.1057122 Z M54.153551,44.4837574 L31.6726991,44.4837574 C30.3646003,44.4837574 29.308059,43.4188308 29.308059,42.1191173 L29.308059,36.5429268 L29.308059,30.3043018 L29.308059,29.8850393 L56.5181911,33.6332455 L56.5181911,42.110732 C56.5181911,43.4272161 55.4532645,44.4837574 54.153551,44.4837574 L54.153551,44.4837574 Z" id="Cart" fill="#E1E5EA"></path>
                </g>
            </g>
        </g>
    </g>
</svg>