<?xml version="1.0" encoding="UTF-8"?>
<svg width="16px" height="16px" viewBox="0 0 16 16" version="1.1" xmlns="http://www.w3.org/2000/svg" xmlns:xlink="http://www.w3.org/1999/xlink">
    <!-- Generator: Sketch 48.1 (47250) - http://www.bohemiancoding.com/sketch -->
    <title>Ngoai ngu</title>
    <desc>Created with Sketch.</desc>
    <defs></defs>
    <g id="Template1-Copy" stroke="none" stroke-width="1" fill="none" fill-rule="evenodd" transform="translate(-420.000000, -235.000000)">
        <g id="Ngoai-ngu" transform="translate(416.000000, 231.000000)">
            <rect id="Rectangle-3-Copy-5" x="0" y="0" width="24" height="24"></rect>
            <path d="M17.6103548,6.13682651 C16.1048265,4.7588616 14.1067914,4 11.9844366,4 C9.86208187,4 7.86407797,4.7588616 6.35854971,6.13682651 C4.83764522,7.52882651 4.00003119,9.38401559 4.00003119,11.3606238 C4.00003119,12.9021442 4.50410916,14.3626667 5.46186355,15.6077037 L4.04550487,19.1112047 C3.95034698,19.3465887 4.00732943,19.6161559 4.18962963,19.7928733 C4.30846004,19.9080546 4.46496686,19.9688109 4.62396881,19.9688109 C4.70889669,19.9688109 4.79454191,19.9514698 4.87544639,19.9158207 L8.88810916,18.146963 C9.86872515,18.5281559 10.9090682,18.7212476 11.9844366,18.7212476 C13.3304639,18.7212476 14.6613333,18.4066745 15.8331384,17.8115244 C16.1402885,17.6555166 16.2628304,17.2800624 16.1068226,16.9728811 C15.9508148,16.665731 15.5753606,16.5432203 15.2681793,16.6991969 C14.2705653,17.2058635 13.1350955,17.4736842 11.9844366,17.4736842 C10.9847329,17.4736842 10.0220819,17.2792515 9.12324366,16.8957817 C8.96449123,16.828039 8.78477973,16.8291306 8.62683821,16.8987446 L5.77787135,18.1546043 L6.75614815,15.7346745 C6.84325926,15.5191891 6.80336842,15.2731072 6.6525692,15.0962339 C5.7334269,14.0179337 5.24759454,12.7261754 5.24759454,11.3606238 C5.24759454,7.98986355 8.2697232,5.24756335 11.9844366,5.24756335 C15.6991501,5.24756335 18.7212788,7.98986355 18.7212788,11.3606238 C18.7212788,12.5213567 18.3611072,13.6507135 17.6796257,14.6265575 C17.482386,14.9090058 17.5514386,15.2978713 17.8339181,15.4951111 C18.1163041,15.6923821 18.5052632,15.6232671 18.7024717,15.3408187 C19.5309474,14.1544795 19.9688421,12.7781365 19.9688421,11.3606238 C19.9688421,9.38401559 19.1312593,7.52882651 17.6103548,6.13682651 Z" id="Shape" fill="#9B9B9B" fill-rule="nonzero"></path>
        </g>
    </g>
</svg>