<?xml version="1.0" encoding="UTF-8"?>
<svg width="16px" height="16px" viewBox="0 0 16 16" version="1.1" xmlns="http://www.w3.org/2000/svg" xmlns:xlink="http://www.w3.org/1999/xlink">
    <!-- Generator: Sketch 48.1 (47250) - http://www.bohemiancoding.com/sketch -->
    <title>Am nhac</title>
    <desc>Created with Sketch.</desc>
    <defs></defs>
    <g id="Template1-Copy" stroke="none" stroke-width="1" fill="none" fill-rule="evenodd" transform="translate(-139.000000, -496.000000)">
        <g id="Am-nhac" transform="translate(135.000000, 492.000000)">
            <rect id="Rectangle-3-Copy-8" x="0" y="0" width="24" height="24"></rect>
            <path d="M19.3088438,4.42134375 C18.869625,4.06371875 18.2995313,3.9244375 17.7431562,4.03965625 L10.4324687,5.5753125 C9.56621875,5.75465625 8.9375,6.52684375 8.9375,7.41140625 L8.9375,14.42325 C8.42225,14.039625 7.78403125,13.812375 7.09375,13.812375 C5.38784375,13.812375 4,15.2002188 4,16.906125 C4,18.6120313 5.38784375,19.999875 7.09375,19.999875 C8.79334375,19.999875 10.1772187,18.6222813 10.1874375,16.9250625 C10.1875,16.92225 10.1875,16.9194063 10.1875,16.9165625 L10.1875,9.88315625 L18.75,8.06203125 L18.75,12.4232813 C18.23475,12.0396563 17.5965312,11.8124063 16.90625,11.8124063 C15.2003438,11.8124063 13.8125,13.20025 13.8125,14.9061562 C13.8125,16.6120625 15.2003438,17.9999062 16.90625,17.9999062 C17.2408125,17.9999062 17.5701563,17.9466562 17.8851563,17.8416562 C18.212625,17.7324687 18.3895937,17.3785313 18.2804062,17.0510625 C18.17125,16.7235937 17.8172813,16.5466562 17.4898125,16.6558125 C17.3025313,16.71825 17.1061875,16.7499062 16.9062188,16.7499062 C15.8895938,16.7499062 15.0624688,15.9228125 15.0624688,14.9061562 C15.0624688,13.8895 15.8895938,13.0624062 16.9062188,13.0624062 C17.9228437,13.0624062 18.7499688,13.8895 18.7499688,14.9061562 L18.7499688,14.9103125 C18.7499688,15.2555 19.0297812,15.5353125 19.3749688,15.5353125 C19.7201563,15.5353125 19.9999688,15.2555 19.9999688,14.9103125 L19.9999688,5.87534375 C20,5.3089375 19.7480625,4.77896875 19.3088438,4.42134375 Z M7.09375,18.7499063 C6.077125,18.7499063 5.25,17.9228125 5.25,16.9061562 C5.25,15.8895 6.077125,15.0624062 7.09375,15.0624062 C8.110375,15.0624062 8.9375,15.8895 8.9375,16.9061562 C8.9375,17.9228125 8.110375,18.7499063 7.09375,18.7499063 Z M18.75,6.7840625 L10.1875,8.6051875 L10.1875,7.41140625 C10.1875,7.11653125 10.3970937,6.85915625 10.687625,6.799 L17.9983125,5.2633125 C18.0407813,5.25453125 18.0835,5.2501875 18.1259063,5.2501875 C18.2681563,5.2501875 18.4068125,5.29884375 18.519625,5.39065625 C18.6660313,5.509875 18.75,5.68653125 18.75,5.87534375 L18.75,6.7840625 Z" id="Shape" fill="#9B9B9B" fill-rule="nonzero"></path>
        </g>
    </g>
</svg>