<?xml version="1.0" encoding="UTF-8"?>
<svg width="18px" height="16px" viewBox="0 0 18 16" version="1.1" xmlns="http://www.w3.org/2000/svg" xmlns:xlink="http://www.w3.org/1999/xlink">
    <!-- Generator: Sketch 48.1 (47250) - http://www.bohemiancoding.com/sketch -->
    <title>Tin hoc van phong</title>
    <desc>Created with Sketch.</desc>
    <defs></defs>
    <g id="Template1-Copy" stroke="none" stroke-width="1" fill="none" fill-rule="evenodd" transform="translate(-138.000000, -452.000000)">
        <g id="Tin-hoc-van-phong" transform="translate(135.000000, 448.000000)">
            <rect id="Rectangle-3-Copy-3" x="0" y="0" width="24" height="24"></rect>
            <path d="M20.296875,11.0333945 C20.6852109,11.0333945 21,10.7186055 21,10.3302695 L21,6.81464453 C21,5.26383203 19.7383125,4.00214453 18.1875,4.00214453 L5.8125,4.00214453 C4.2616875,4.00214453 3,5.26383203 3,6.81464453 L3,13.8458945 C3,15.396707 4.2616875,16.6583945 5.8125,16.6583945 L11.296875,16.6583945 L11.296875,18.0603555 L8.8359375,18.0603555 C8.44760156,18.0603555 8.1328125,18.3751445 8.1328125,18.7634805 C8.1328125,19.1518164 8.44760156,19.4666055 8.8359375,19.4666055 L15.1640625,19.4666055 C15.5523984,19.4666055 15.8671875,19.1518164 15.8671875,18.7634805 C15.8671875,18.3751445 15.5523984,18.0603555 15.1640625,18.0603555 L12.703125,18.0603555 L12.703125,16.6583945 L18.1875,16.6583945 C19.7383125,16.6583945 21,15.396707 21,13.8458945 C21,13.4575586 20.6852109,13.1427695 20.296875,13.1427695 C19.9085391,13.1427695 19.59375,13.4575586 19.59375,13.8458945 C19.59375,14.6213008 18.9629062,15.2521445 18.1875,15.2521445 L5.8125,15.2521445 C5.03709375,15.2521445 4.40625,14.6213008 4.40625,13.8458945 L4.40625,6.81464453 C4.40625,6.03923828 5.03709375,5.40839453 5.8125,5.40839453 L18.1875,5.40839453 C18.9629062,5.40839453 19.59375,6.03923828 19.59375,6.81464453 L19.59375,10.3302695 C19.59375,10.7186055 19.9085391,11.0333945 20.296875,11.0333945 Z" id="Shape" fill="#9B9B9B" fill-rule="nonzero"></path>
        </g>
    </g>
</svg>