<?xml version="1.0" encoding="UTF-8"?>
<svg width="16px" height="16px" viewBox="0 0 16 16" version="1.1" xmlns="http://www.w3.org/2000/svg" xmlns:xlink="http://www.w3.org/1999/xlink">
    <!-- Generator: Sketch 48.1 (47250) - http://www.bohemiancoding.com/sketch -->
    <title>Thiet ke</title>
    <desc>Created with Sketch.</desc>
    <defs></defs>
    <g id="Template1-Copy" stroke="none" stroke-width="1" fill="none" fill-rule="evenodd" transform="translate(-420.000000, -367.000000)">
        <g id="Thiet-ke" transform="translate(416.000000, 363.000000)">
            <rect id="Rectangle-3-Copy-11" x="0" y="0" width="24" height="24"></rect>
            <path d="M19.0623824,4.9376875 C18.4577259,4.333 17.6538192,4 16.7987251,4 C15.9436309,4 15.139693,4.333 14.5350365,4.93765625 L5.58831329,13.8844062 C5.51218825,13.9605312 5.45703197,14.0550312 5.42815696,14.15875 L4.02290626,19.2074062 C3.96231248,19.4251563 4.02396876,19.6586875 4.18425009,19.8180937 C4.30300015,19.9362187 4.46212523,20 4.62506281,20 C4.68200034,20 4.73943787,19.9921875 4.79578164,19.9761875 L9.84444039,18.5420937 C10.0574405,18.4815938 10.2225656,18.312875 10.2784406,18.0985937 C10.3343156,17.8843125 10.2726281,17.6564687 10.1162843,17.499625 L6.9334077,14.3070937 L14.3495051,6.89096875 L17.107569,9.64903125 L11.4302537,15.310875 C11.1858473,15.554625 11.1853161,15.9503438 11.4290662,16.19475 C11.672785,16.4391875 12.0685665,16.4396875 12.3129416,16.1959687 L19.0623199,9.46496875 C19.6670077,8.8603125 20.0000079,8.05640625 20.0000079,7.2013125 C20.0000079,6.34621875 19.6670077,5.5423125 19.0623824,4.9376875 Z M8.48109375,17.6299375 L5.52584375,18.469375 L6.3535,15.495875 L8.48109375,17.6299375 Z M18.1790625,8.58046875 L17.9926562,8.766375 L15.2334062,6.00709375 L15.4189687,5.82153125 C15.7875,5.45296875 16.2775,5.25 16.7987187,5.25 C17.3199375,5.25 17.8099062,5.45296875 18.1784687,5.8215625 C18.5470312,6.19009375 18.75,6.68009375 18.75,7.2013125 C18.75,7.72253125 18.5470312,8.21253125 18.1790625,8.58046875 Z" id="Shape" fill="#9B9B9B" fill-rule="nonzero"></path>
        </g>
    </g>
</svg>