<?xml version="1.0" encoding="UTF-8"?>
<svg width="16px" height="16px" viewBox="0 0 16 16" version="1.1" xmlns="http://www.w3.org/2000/svg" xmlns:xlink="http://www.w3.org/1999/xlink">
    <!-- Generator: Sketch 48.1 (47250) - http://www.bohemiancoding.com/sketch -->
    <title>Marketing</title>
    <desc>Created with Sketch.</desc>
    <defs></defs>
    <g id="Template1-Copy" stroke="none" stroke-width="1" fill="none" fill-rule="evenodd" transform="translate(-139.000000, -540.000000)">
        <g id="Marketing" transform="translate(135.000000, 536.000000)">
            <rect id="Rectangle-3-Copy-7" x="0" y="0" width="24" height="24"></rect>
            <path d="M19.375,12.8118437 C19.7201875,12.8118437 20,12.5320312 20,12.1868437 L20,5.87540625 C20,5.26625 19.7026563,4.6931875 19.204625,4.34240625 C18.7065625,3.99165625 18.0668125,3.9048125 17.4933125,4.10996875 C17.4756563,4.11628125 17.4582812,4.12340625 17.44125,4.13128125 L12.4341875,6.44971875 C11.3318438,6.96009375 10.1570312,7.2225 8.94234375,7.2295625 L6.498,7.2438125 C5.1204375,7.2449375 4,8.366 4,9.74384375 L4,11.3688437 C4,12.4775 4.7326875,13.4319062 5.75,13.7530625 L5.75,18.0996875 C5.75,18.6082812 5.959125,19.1051875 6.32375,19.462875 C6.67725,19.8096875 7.1381875,19.999375 7.625375,19.999375 C7.6373125,19.999375 7.64934375,19.99925 7.6613125,19.999 C8.15459375,19.9895937 8.61678125,19.7904062 8.96275,19.4381562 C9.30921875,19.0854062 9.5,18.6188437 9.5,18.1243437 L9.5,13.8666875 C10.5549063,13.9461875 11.5977188,14.225375 12.5485938,14.6859375 L17.4255938,17.0480937 C17.4448125,17.0574062 17.4645,17.0656875 17.4845625,17.073 C18.0588125,17.28175 18.7004375,17.197 19.2008125,16.8464375 C19.7012188,16.4958437 20,15.9217812 20,15.31075 C20,14.9655625 19.7201875,14.68575 19.375,14.68575 C19.0298125,14.68575 18.75,14.9655625 18.75,15.31075 C18.75,15.5174687 18.6529063,15.7040312 18.4835938,15.8226562 C18.3215937,15.936125 18.12375,15.9662187 17.9368438,15.9067812 L13.0934687,13.5609375 C11.97375,13.018625 10.7429063,12.6952812 9.5,12.6136875 L9.5,8.46103125 C10.6995,8.38684375 11.8607813,8.09271875 12.959375,7.58409375 L17.9366875,5.2794375 C18.1242812,5.21990625 18.3227812,5.25028125 18.484875,5.36446875 C18.653375,5.483125 18.75,5.669375 18.75,5.87546875 L18.75,12.1869062 C18.75,12.5320312 19.0298125,12.8118437 19.375,12.8118437 Z M8.25,18.1243437 C8.25,18.4624375 7.97521875,18.74275 7.63740625,18.7492187 C7.47578125,18.75225 7.3196875,18.688875 7.199125,18.5705625 C7.07259375,18.4464062 7,18.2747812 7,18.0996562 L7,13.2391562 C7,12.910125 6.74490625,12.6374375 6.41659375,12.6155312 C5.7624375,12.5719062 5.25,12.0242812 5.25,11.3688437 L5.25,9.74384375 C5.25,9.05459375 5.81075,8.49384375 6.5,8.49384375 L6.50365625,8.49384375 L8.25,8.48365625 L8.25,18.1243437 Z" id="Shape" fill="#9B9B9B" fill-rule="nonzero"></path>
        </g>
    </g>
</svg>