<svg xmlns="http://www.w3.org/2000/svg" width="50" height="50" viewBox="0 0 50 50">
    <g fill="none" fill-rule="evenodd">
        <rect width="50" height="50" fill="#DF322F" rx="10"/>
        <path fill="#FFF" d="M17.953 29.16l.203.116 5.128 2.94 1.066.61c.26.148.58.147.84-.002l9.312-5.338a.843.843 0 0 1 1.264.724l.001 2.271c0 .3-.16.576-.422.725l-.654.375-8.817 5.054a2.226 2.226 0 0 1-2.213 0l-5.585-3.201-3.202-1.836a2.195 2.195 0 0 1-1.107-1.903V23.13v.017-3.525c0-.785.422-1.51 1.107-1.903l6.825-3.912 1.96-1.124.004-.002a2.227 2.227 0 0 1 2.21.002l1.881 1.078 6.905 3.958a2.194 2.194 0 0 1 1.107 1.903v1.667c0 .784-.422 1.51-1.107 1.902l-3.807 2.183a3.513 3.513 0 0 1-.017.01l-1.061.608-4.585 2.628a.849.849 0 0 1-.843 0l-2.824-1.619a.836.836 0 0 1-.422-.725v-2.27a.843.843 0 0 1 1.265-.725l1.981 1.136c.261.15.582.15.843 0l5.646-3.237a.834.834 0 0 0 0-1.45l-1.326-.76-3.31-1.897-1.01-.58a.945.945 0 0 0-.89.027l-6.444 3.693a.836.836 0 0 0-.421.725v7.327c0 .369.198.71.519.894z"/>
    </g>
</svg>
