<?xml version="1.0" encoding="UTF-8"?>
<svg width="16px" height="15px" viewBox="0 0 16 15" version="1.1" xmlns="http://www.w3.org/2000/svg" xmlns:xlink="http://www.w3.org/1999/xlink">
    <!-- Generator: Sketch 48.1 (47250) - http://www.bohemiancoding.com/sketch -->
    <title>Multimedia</title>
    <desc>Created with Sketch.</desc>
    <defs></defs>
    <g id="Template1-Copy" stroke="none" stroke-width="1" fill="none" fill-rule="evenodd" transform="translate(-139.000000, -365.000000)">
        <g id="Multimedia" transform="translate(135.000000, 360.000000)">
            <rect id="Rectangle-3-Copy-2" x="0" y="0" width="24" height="24"></rect>
            <g id="037-photo-camera" transform="translate(4.000000, 5.000000)" fill="#9B9B9B" fill-rule="nonzero">
                <path d="M15.375,9.4375 C15.0298125,9.4375 14.75,9.1576875 14.75,8.8125 L14.75,4.75 C14.75,4.06075 14.18925,3.5 13.5,3.5 L12.5512188,3.5 C11.74825,3.5 11.0349375,2.98928125 10.7762187,2.22915625 L10.587125,1.673625 C10.5008437,1.42025 10.2630937,1.25 9.9954375,1.25 L6.00259375,1.25 C5.740125,1.25 5.50390625,1.415875 5.41475,1.66271875 L5.19840625,2.26184375 C4.931,3.00240625 4.22228125,3.5 3.43490625,3.5 L2.5,3.5 C1.81075,3.5 1.25,4.06075 1.25,4.75 L1.25,11.9375 C1.25,12.62675 1.81075,13.1875 2.5,13.1875 L13.5,13.1875 C14.18925,13.1875 14.75,12.62675 14.75,11.9375 C14.75,11.5923125 15.0298125,11.3125 15.375,11.3125 C15.7201875,11.3125 16,11.5923125 16,11.9375 C16,13.316 14.8785,14.4375 13.5,14.4375 L2.5,14.4375 C1.1215,14.4375 0,13.316 0,11.9375 L0,4.75 C0,3.3715 1.1215,2.25 2.5,2.25 L3.43490625,2.25 C3.697375,2.25 3.93359375,2.084125 4.02275,1.83728125 L4.23909375,1.23815625 C4.5065,0.49759375 5.21521875,0 6.00259375,0 L9.9954375,0 C10.798375,0 11.5116875,0.51071875 11.7704375,1.27084375 L11.9595312,1.826375 C12.0457813,2.07978125 12.2835625,2.25 12.5512188,2.25 L13.5,2.25 C14.8785,2.25 16,3.3715 16,4.75 L16,8.8125 C16,9.1576875 15.7201875,9.4375 15.375,9.4375 Z M8.03125,4.125 C10.1851563,4.125 11.9375,5.87734375 11.9375,8.03125 C11.9375,10.1851563 10.1851563,11.9375 8.03125,11.9375 C5.87734375,11.9375 4.125,10.1851563 4.125,8.03125 C4.125,5.87734375 5.87734375,4.125 8.03125,4.125 Z M8.03125,10.6875 C9.49590625,10.6875 10.6875,9.49590625 10.6875,8.03125 C10.6875,6.56659375 9.49590625,5.375 8.03125,5.375 C6.56659375,5.375 5.375,6.56659375 5.375,8.03125 C5.375,9.49590625 6.56659375,10.6875 8.03125,10.6875 Z" id="Combined-Shape"></path>
            </g>
        </g>
    </g>
</svg>