<?xml version="1.0" encoding="UTF-8"?>
<svg width="18px" height="19px" viewBox="0 0 18 19" version="1.1" xmlns="http://www.w3.org/2000/svg" xmlns:xlink="http://www.w3.org/1999/xlink">
    <!-- Generator: Sketch 48.1 (47250) - http://www.bohemiancoding.com/sketch -->
    <title>Phong thuy</title>
    <desc>Created with Sketch.</desc>
    <defs></defs>
    <g id="Template1-Copy" stroke="none" stroke-width="1" fill="none" fill-rule="evenodd" transform="translate(-419.000000, -498.000000)">
        <g id="Phong-thuy" transform="translate(416.000000, 495.000000)">
            <rect id="Rectangle-3-Copy-14" x="0" y="0" width="24" height="24"></rect>
            <path d="M16.7414664,18.021896 C16.9673946,17.4634924 17.0916996,16.8549632 17.0916996,16.220443 C17.0916996,13.5549094 14.9231435,11.3862726 12.2575291,11.3862726 C10.3485605,11.3862726 8.79555605,9.83318744 8.79555605,7.92421883 C8.79555605,6.01525022 10.3485605,4.46224574 12.2575291,4.46224574 C12.3274305,4.46224574 12.4037085,4.46523229 12.4975022,4.47160897 C12.5077534,4.47233543 12.517843,4.47185112 12.5280942,4.47209327 C16.4788924,4.74895426 19.608713,8.05118744 19.608713,12.0711605 C19.608713,14.4765417 18.4879507,16.6246762 16.7414664,18.021896 M4.37223767,12.0711605 C4.37223767,9.31344753 5.8451704,6.89321435 8.04560987,5.555887 C7.65017489,6.25635336 7.42335874,7.06409327 7.42335874,7.92421883 C7.42335874,10.5898332 9.5919148,12.75847 12.2575291,12.75847 C14.1664978,12.75847 15.7195022,14.3114744 15.7195022,16.220443 C15.7195022,18.0227031 14.3201031,19.5317166 12.5280942,19.6702278 C12.350435,19.682739 12.1712422,19.6895193 11.9905157,19.6895193 C7.78973543,19.6895193 4.37223767,16.2719408 4.37223767,12.0711605 M20.9809103,12.0711605 C20.9809103,16.8247749 17.2916368,20.7160843 12.6201928,21.0393578 C12.6103453,21.040165 12.6007399,21.0414565 12.5909731,21.0421022 C12.5811256,21.042748 12.571278,21.0428287 12.5615112,21.0430709 C12.3726323,21.0549363 12.1823812,21.0617166 11.9905157,21.0617166 C7.02517937,21.0617166 3.00004036,17.0364969 3.00004036,12.0711605 C3.00004036,7.10590493 7.02517937,3.0806852 11.9905157,3.0806852 C16.9557713,3.0806852 20.9809103,7.10590493 20.9809103,12.0711605 Z M12.2575049,6.63981794 C11.5481596,6.63981794 10.9730475,7.21493004 10.9730475,7.92427534 C10.9730475,8.63362063 11.5481596,9.20865202 12.2575049,9.20865202 C12.9669309,9.20865202 13.5419623,8.63362063 13.5419623,7.92427534 C13.5419623,7.21493004 12.9669309,6.63981794 12.2575049,6.63981794 Z M13.54193,16.2204511 C13.54193,15.5111058 12.9668987,14.9359937 12.2574726,14.9359937 C11.5481274,14.9359937 10.973096,15.5111058 10.973096,16.2204511 C10.973096,16.9297964 11.5481274,17.5049085 12.2574726,17.5049085 C12.9668987,17.5049085 13.54193,16.9297964 13.54193,16.2204511 Z" id="Combined-Shape" fill="#9B9B9B"></path>
        </g>
    </g>
</svg>