<?xml version="1.0" encoding="UTF-8"?>
<svg width="18px" height="19px" viewBox="0 0 18 19" version="1.1" xmlns="http://www.w3.org/2000/svg" xmlns:xlink="http://www.w3.org/1999/xlink">
    <!-- Generator: Sketch 48.1 (47250) - http://www.bohemiancoding.com/sketch -->
    <title>Nuoi day con</title>
    <desc>Created with Sketch.</desc>
    <defs></defs>
    <g id="Template1-Copy" stroke="none" stroke-width="1" fill="none" fill-rule="evenodd" transform="translate(-419.000000, -454.000000)">
        <g id="Nuoi-day-con" transform="translate(416.000000, 451.000000)">
            <rect id="Rectangle-3-Copy-13" x="0" y="0" width="24" height="24"></rect>
            <path d="M13.7152754,4.71778666 C14.3894911,5.36984909 14.6999641,6.14140465 14.8369125,6.620565 C15.3269625,8.3360775 14.3414625,10.3480275 12.727875,10.9260525 C12.44955,11.0257275 12.1335375,11.0747775 11.805375,11.0747775 C10.7427,11.0747775 9.549975,10.5615525 9.0762375,9.5960775 C8.1676875,7.74399 9.4213875,6.43719 10.21125,6.004965 C10.4838375,5.85579 10.825725,5.955915 10.974675,6.2282775 C11.1234,6.499965 11.0244,6.840615 10.753725,6.990465 C10.5297375,7.1168025 9.4524375,7.80879 10.0862625,9.1006275 C10.4343375,9.8102775 11.64135,10.12044 12.3484125,9.8669775 C13.395675,9.49179 14.0793375,8.0642775 13.755225,6.9296025 C13.5089005,6.06783036 12.7586993,4.6938347 10.4849487,4.6581586 C7.02013909,5.34763041 4.40058,8.41170831 4.40058,12.0760837 C4.40058,16.2463462 7.793355,19.6391212 11.9636175,19.6391212 C13.346805,19.6391212 14.69973,19.2625837 15.87603,18.5500087 C16.20678,18.3495337 16.6373175,18.4552837 16.8377925,18.7861462 C17.038155,19.1168962 16.932405,19.5475462 16.601655,19.7479087 C15.2065425,20.5930087 13.6027425,21.0397462 11.9636175,21.0397462 C9.56928,21.0397462 7.31838,20.1073462 5.6253675,18.4143337 C3.932355,16.7213212 2.999955,14.4704212 2.999955,12.0760837 C2.999955,9.68185875 3.932355,7.43084625 5.6253675,5.73783375 C7.31838,4.04493375 9.56928,3.11253375 11.9636175,3.11253375 C14.3578425,3.11253375 16.608855,4.04493375 18.3018675,5.73783375 C19.9947675,7.43084625 20.9271675,9.68185875 20.9271675,12.0760837 C20.9271675,13.8453712 20.4020175,15.5660587 19.40853,17.0521837 C19.1935425,17.3737087 18.75873,17.4601087 18.437205,17.2451212 C18.11568,17.0301337 18.02928,16.5952087 18.2442675,16.2736837 C19.08318,15.0188587 19.526655,13.5672712 19.526655,12.0760837 C19.526655,8.50858221 17.04377,5.51005801 13.7152754,4.71778666 Z M9.8285475,12.6878925 C9.8285475,13.284705 9.3447975,13.768455 8.747985,13.768455 C8.1511725,13.768455 7.6674225,13.284705 7.6674225,12.6878925 C7.6674225,12.09108 8.1511725,11.60733 8.747985,11.60733 C9.3447975,11.60733 9.8285475,12.09108 9.8285475,12.6878925 Z M16.2597788,12.6878925 C16.2597788,13.284705 15.7760288,13.768455 15.1792163,13.768455 C14.5824038,13.768455 14.0986538,13.284705 14.0986538,12.6878925 C14.0986538,12.09108 14.5824038,11.60733 15.1792163,11.60733 C15.7760288,11.60733 16.2597788,12.09108 16.2597788,12.6878925 Z M9.83470125,15.0296362 L13.8535387,15.0296362 C13.7902012,16.0856737 12.9160762,16.9232362 11.8440637,16.9232362 C10.7721637,16.9232362 9.89803875,16.0856737 9.83470125,15.0296362 Z" id="Combined-Shape" fill="#9B9B9B"></path>
        </g>
    </g>
</svg>