<?xml version="1.0" encoding="UTF-8"?>
<svg width="14px" height="21px" viewBox="0 0 14 21" version="1.1" xmlns="http://www.w3.org/2000/svg" xmlns:xlink="http://www.w3.org/1999/xlink">
    <!-- Generator: Sketch 48.1 (47250) - http://www.bohemiancoding.com/sketch -->
    <title>Page 1</title>
    <desc>Created with Sketch.</desc>
    <defs></defs>
    <g id="Page-1" stroke="none" stroke-width="1" fill="none" fill-rule="evenodd">
        <g transform="translate(-5.000000, -1.000000)">
            <polygon id="Fill-1" points="0 23.9312961 23.9312961 23.9312961 23.9312961 0 0 0"></polygon>
            <path d="M11.9656893,20.3552858 C9.19157768,20.3552858 6.93465064,18.0983588 6.93465064,15.3242472 C6.93465064,13.4176378 8.03308841,11.670582 9.71463348,10.8257408 L11.382994,12.4943073 C11.5376034,12.6488137 11.7471142,12.7355433 11.9656893,12.7355433 C12.1842644,12.7355433 12.3937751,12.6488137 12.5483845,12.4943073 L14.2167451,10.8257408 C15.8983931,11.670582 16.9968309,13.4176378 16.9968309,15.3242472 C16.9968309,18.0983588 14.7399039,20.3552858 11.9656893,20.3552858 Z M9.11875365,3.62192961 L14.8127279,3.62192961 L16.0765906,5.35652189 L7.85478798,5.35652189 L9.11875365,3.62192961 Z M8.22416137,7.00459056 L15.7072172,7.00459056 L11.9656893,10.7462215 L8.22416137,7.00459056 Z M15.4278695,9.61471931 L18.2793373,6.7632515 C18.2978781,6.74481373 18.3151828,6.72555193 18.3315605,6.70577511 C18.3354747,6.70103691 18.3388738,6.6958867 18.342685,6.69104549 C18.3548395,6.67569785 18.366788,6.66035021 18.3776034,6.64438455 C18.3827536,6.63686524 18.3871828,6.62893391 18.392127,6.62131159 C18.4008824,6.60750901 18.4096378,6.59370644 18.4174661,6.57959485 C18.4227193,6.57001545 18.4272515,6.56012704 18.4321957,6.55044464 C18.438685,6.5376721 18.4450712,6.52479657 18.4508395,6.51181803 C18.4557837,6.50069356 18.4600069,6.48946609 18.4644361,6.47813562 C18.4691742,6.46577511 18.4739124,6.45341459 18.4780326,6.44095107 C18.4819468,6.42900258 18.4855519,6.41705408 18.4889511,6.40479657 C18.4924532,6.39212704 18.4957494,6.37945751 18.4988395,6.36658197 C18.5015176,6.35473648 18.5041957,6.34278798 18.5063588,6.33073648 C18.5089339,6.31631588 18.511097,6.30189528 18.5129511,6.28737167 C18.5142901,6.27655622 18.5159382,6.26594678 18.5169682,6.25502833 C18.5185133,6.23617854 18.5193373,6.21743176 18.5197494,6.19858197 C18.5198524,6.19250472 18.5206764,6.18663348 18.5206764,6.18055622 C18.5206764,6.17942318 18.5204704,6.17839313 18.5204704,6.17715708 C18.5203674,6.1512 18.5191313,6.12513991 18.5165562,6.09907983 C18.5158352,6.09166352 18.5143931,6.08445322 18.5134661,6.07713991 C18.5112,6.05901116 18.5086249,6.0408824 18.5051227,6.02285665 C18.5030627,6.01183519 18.5001785,6.00101974 18.4976034,5.99010129 C18.4943073,5.97619571 18.4910112,5.96229013 18.486994,5.94859056 C18.4834918,5.93674506 18.4794747,5.92510558 18.4755605,5.91346609 C18.4712343,5.90100258 18.4668052,5.88853906 18.4618609,5.87628155 C18.4571227,5.86443605 18.4521785,5.85289957 18.4470283,5.84136309 C18.4416721,5.8296206 18.4360069,5.81808412 18.4302386,5.80654764 C18.4243674,5.79501116 18.4182901,5.78368069 18.4119039,5.77255622 C18.4056206,5.76143176 18.3989253,5.75061631 18.392127,5.73980086 C18.3850197,5.7288824 18.3780155,5.71796395 18.3705991,5.70735451 C18.367818,5.70344034 18.3654489,5.69921717 18.3626678,5.695303 L15.8978781,2.31264206 C15.7427536,2.09973219 15.4952343,1.97386094 15.2318524,1.97386094 L8.69962918,1.97386094 C8.43614421,1.97386094 8.1887279,2.09973219 8.03360343,2.31253906 L5.56871073,5.695303 C5.56582661,5.69932017 5.56335451,5.70354335 5.56047039,5.70766352 C5.55326009,5.71796395 5.5463588,5.72867639 5.53956052,5.73938884 C5.53245322,5.7504103 5.52565494,5.76153476 5.51926867,5.77276223 C5.51298541,5.78378369 5.50701116,5.79490815 5.50124292,5.80613562 C5.49526867,5.81787811 5.48950043,5.82972361 5.48414421,5.84177511 C5.479097,5.85300258 5.47415279,5.86433305 5.4696206,5.87586953 C5.46457339,5.88843605 5.4599382,5.90120858 5.45561202,5.91398112 C5.45169785,5.92541459 5.4478867,5.93674506 5.44438455,5.94828155 C5.44026438,5.96239313 5.43686524,5.97660773 5.43346609,5.99082232 C5.43099399,6.00143176 5.42831588,6.01183519 5.42615279,6.02265064 C5.42254764,6.04119142 5.41997253,6.0599382 5.41760343,6.07868498 C5.4167794,6.08548326 5.41544034,6.09207554 5.41482232,6.09887382 C5.41224721,6.12503691 5.41090815,6.1512 5.41080515,6.17736309 C5.41080515,6.17849614 5.41070215,6.17952618 5.41070215,6.18055622 C5.41070215,6.18632446 5.41142318,6.1918867 5.41152618,6.19755193 C5.4119382,6.21681373 5.41265923,6.23597253 5.4144103,6.25513133 C5.41544034,6.26594678 5.41698541,6.27645322 5.41832446,6.28716567 C5.42028155,6.30168927 5.42234163,6.31631588 5.42501974,6.33083948 C5.42718283,6.34278798 5.42975794,6.35473648 5.43253906,6.36647897 C5.43552618,6.37935451 5.43882232,6.39212704 5.44232446,6.40479657 C5.44582661,6.41705408 5.44943176,6.42910558 5.45334592,6.44115708 C5.45746609,6.45341459 5.46210129,6.4655691 5.46673648,6.4776206 C5.47126867,6.48926009 5.47559485,6.50079657 5.48064206,6.51202403 C5.48610129,6.52459056 5.49228155,6.53695107 5.4984618,6.54920858 C5.50371502,6.55950901 5.50855622,6.56991245 5.51411845,6.58000687 C5.52143176,6.59329442 5.52977511,6.60616996 5.53791245,6.6191485 C5.54326867,6.62769785 5.54831588,6.63645322 5.55398112,6.64479657 C5.56386953,6.65911416 5.57458197,6.67291674 5.58539742,6.68682232 C5.59034163,6.69320858 5.59497682,6.69990386 5.60012704,6.70608412 C5.61413562,6.72297682 5.62917425,6.73935451 5.6447279,6.75521717 C5.64740601,6.75799828 5.64977511,6.7608824 5.65245322,6.76366352 L8.50350901,9.61471931 C6.54086524,10.8113202 5.28658197,12.9767794 5.28658197,15.3242472 C5.28658197,19.0071657 8.28277082,22.0033545 11.9656893,22.0033545 C15.6486077,22.0033545 18.6448996,19.0071657 18.6448996,15.3242472 C18.6448996,12.9768824 17.3906163,10.8113202 15.4278695,9.61471931 Z" id="Fill-3" fill="#464646"></path>
        </g>
    </g>
</svg>