<?xml version="1.0" encoding="UTF-8"?>
<svg width="18px" height="18px" viewBox="0 0 18 18" version="1.1" xmlns="http://www.w3.org/2000/svg" xmlns:xlink="http://www.w3.org/1999/xlink">
    <!-- Generator: Sketch 48.1 (47250) - http://www.bohemiancoding.com/sketch -->
    <title>Life style</title>
    <desc>Created with Sketch.</desc>
    <defs></defs>
    <g id="Template1-Copy" stroke="none" stroke-width="1" fill="none" fill-rule="evenodd" transform="translate(-419.000000, -539.000000)">
        <g id="Life-style" transform="translate(416.000000, 536.000000)">
            <rect id="Rectangle-3-Copy-6" x="0" y="0" width="24" height="24"></rect>
            <path d="M20.9000702,9.48252632 C20.6351228,8.66719298 19.9134035,8.14031579 19.0614035,8.14031579 L15.4718246,8.14031579 C15.2337895,8.14031579 15.0355088,8.00329825 14.9670175,7.79249123 L13.8573684,4.35519298 C13.5935088,3.54315789 12.8713684,3.01849123 12.0175789,3.01849123 C11.1637895,3.01849123 10.441614,3.54315789 10.1773684,4.35645614 L9.06852632,7.79122807 C8.99961404,8.00329825 8.80133333,8.14031579 8.56329825,8.14031579 L4.97364912,8.14031579 C4.12164912,8.14031579 3.39989474,8.66715789 3.13498246,9.48252632 C2.86901754,10.3010526 3.14445614,11.1549123 3.83659649,11.6577895 L6.74070175,13.7677544 C6.9274386,13.9034035 7.00501754,14.1421053 6.93364912,14.3616491 L5.82438596,17.7755789 C5.56052632,18.587614 5.83638596,19.4365614 6.52712281,19.938386 C6.87249123,20.1893333 7.26831579,20.3147719 7.66414035,20.3147719 C8.06,20.3147719 8.45585965,20.1893333 8.80119298,19.938386 L11.7052982,17.8284211 C11.892,17.6927719 12.1429825,17.6927018 12.3297544,17.8284561 L15.2338246,19.938386 C15.9245614,20.4402105 16.817193,20.4402807 17.5078947,19.938386 C18.1986316,19.4365965 18.4744912,18.587614 18.2106316,17.7755789 L17.4512632,15.4384561 C17.3315439,15.0699298 16.9356491,14.8682456 16.567193,14.9879649 C16.1986316,15.1077193 15.9969474,15.5035088 16.1167018,15.8720702 L16.8760351,18.209193 C16.9867018,18.5497895 16.7563158,18.7498947 16.6830526,18.8031579 C16.6097895,18.8563509 16.3482807,19.0136842 16.0585965,18.8031228 L13.1545263,16.6932281 C12.4744561,16.1990877 11.5605614,16.1990526 10.8804561,16.693193 L7.97638596,18.8031228 C7.68663158,19.0136491 7.42512281,18.8563509 7.35189474,18.8031579 C7.27863158,18.7498947 7.0482807,18.5497895 7.15891228,18.209193 L8.26817544,14.7952632 C8.528,13.9957544 8.24557895,13.1265965 7.56547368,12.6324912 L4.66136842,10.5225263 C4.3694386,10.3104561 4.44070175,10.004807 4.46950877,9.91617544 C4.49792982,9.82873684 4.61821053,9.54357895 4.97361404,9.54357895 L8.56322807,9.54357895 C9.40736842,9.54357895 10.1467018,9.01364912 10.4034386,8.22361404 L11.5122807,4.78887719 C11.6229474,4.44824561 11.9269825,4.42178947 12.0175088,4.42178947 C12.1080351,4.42178947 12.4120702,4.44824561 12.5223158,4.78761404 L13.632,8.22487719 C13.8883158,9.01364912 14.627614,9.54357895 15.4717895,9.54357895 L19.0613684,9.54357895 C19.416807,9.54357895 19.5370526,9.82873684 19.5654737,9.91617544 C19.5942807,10.004807 19.6655439,10.3104561 19.373614,10.5225263 L17.3934386,11.9612281 C17.0799649,12.1890526 17.0104561,12.6277544 17.2382456,12.9412982 C17.466,13.2547719 17.9047368,13.3242105 18.2182807,13.0965263 L20.1984561,11.6578246 C20.8906316,11.1549123 21.1660351,10.3010877 20.9000702,9.48252632 Z" id="Shape" fill="#9B9B9B" fill-rule="nonzero"></path>
        </g>
    </g>
</svg>