<?xml version="1.0" encoding="UTF-8"?>
<svg width="20px" height="18px" viewBox="0 0 20 18" version="1.1" xmlns="http://www.w3.org/2000/svg" xmlns:xlink="http://www.w3.org/1999/xlink">
    <!-- Generator: Sketch 48.1 (47250) - http://www.bohemiancoding.com/sketch -->
    <title>Life style Copy 2</title>
    <desc>Created with Sketch.</desc>
    <defs>
        <polygon id="path-1" points="4.72440945e-05 0.140724409 19.8795276 0.140724409 19.8795276 12.9569449 4.72440945e-05 12.9569449"></polygon>
    </defs>
    <g id="Template1-Copy" stroke="none" stroke-width="1" fill="none" fill-rule="evenodd" transform="translate(-418.000000, -593.000000)">
        <g id="Life-style-Copy-2" transform="translate(416.000000, 590.000000)">
            <rect id="Rectangle-3-Copy-6" x="0" y="0" width="24" height="24"></rect>
            <g id="Page-1" transform="translate(2.000000, 3.000000)">
                <g id="Group-3" transform="translate(0.000000, 0.016850)">
                    <mask id="mask-2" fill="white">
                        <use xlink:href="#path-1"></use>
                    </mask>
                    <g id="Clip-2"></g>
                    <path d="M10.1394961,9.99269291 C10.0752441,10.0279685 10.0065827,10.0459213 9.93571654,10.0459213 C9.86469291,10.0459213 9.79618898,10.0279685 9.7272126,9.99017323 L2.18941732,5.87694488 L9.71855118,1.76859843 C9.78532283,1.73379528 9.86028346,1.71552756 9.93571654,1.71552756 C10.0111496,1.71552756 10.0862677,1.73395276 10.1531969,1.76875591 L17.6829606,5.87379528 L10.1394961,9.99269291 Z M19.3639055,4.99647244 L10.8983937,0.381354331 C10.5976063,0.22088189 10.2665827,0.140724409 9.93571654,0.140724409 C9.60469291,0.140724409 9.27382677,0.22088189 8.97288189,0.381354331 L0.519023622,4.9944252 C-0.172944882,5.37552756 -0.172944882,6.3783622 0.519023622,6.75946457 L8.97288189,11.3725354 C9.27382677,11.5380472 9.60469291,11.6207244 9.93571654,11.6207244 C10.2665827,11.6207244 10.5976063,11.5380472 10.8983937,11.3725354 L18.3228031,7.31867717 L18.3228031,12.1785197 C18.3228031,12.6084409 18.6713071,12.9569449 19.1012283,12.9569449 C19.5311496,12.9569449 19.8796535,12.6084409 19.8796535,12.1785197 L19.8796535,5.88072441 L19.8794961,5.88072441 C19.8805984,5.53458268 19.7087874,5.18812598 19.3639055,4.99647244 Z" id="Fill-1" fill="#9B9B9B" mask="url(#mask-2)"></path>
                </g>
                <path d="M15.3807874,12.7406142 L15.3807874,12.9037638 C15.3807874,13.062189 15.2929134,13.2127402 15.1579528,13.2864409 L10.1395276,16.0265984 C10.0752756,16.061874 10.0066142,16.0798268 9.93559055,16.0798268 C9.86472441,16.0798268 9.79606299,16.061874 9.72755906,16.0242362 L4.71433071,13.2869134 C4.5784252,13.2127402 4.49055118,13.062189 4.49055118,12.9037638 L4.49055118,12.7406142 L8.21401575,14.7749449 C8.74110236,15.0648661 9.33637795,15.2180945 9.93559055,15.2180945 C10.5349606,15.2180945 11.1302362,15.0648661 11.6535433,14.7769921 L15.3807874,12.7406142 Z M9.93559055,13.6432913 C9.60472441,13.6432913 9.27385827,13.5606142 8.97291339,13.3951024 L2.91574803,10.0856535 L2.91574803,12.9037638 C2.91574803,13.6357323 3.31700787,14.317622 3.95874016,14.6686457 L8.97291339,17.4064409 C9.27385827,17.5719528 9.60472441,17.6546299 9.93559055,17.6546299 C10.2666142,17.6546299 10.5974803,17.5719528 10.8984252,17.4064409 L15.9125984,14.6686457 C16.5544882,14.317622 16.9555906,13.6357323 16.9555906,12.9037638 L16.9555906,10.0856535 L10.8984252,13.3951024 C10.5974803,13.5606142 10.2666142,13.6432913 9.93559055,13.6432913 Z" id="Fill-4" fill="#9B9B9B"></path>
            </g>
        </g>
    </g>
</svg>