<?xml version="1.0" encoding="UTF-8"?>
<svg width="16px" height="15px" viewBox="0 0 16 15" version="1.1" xmlns="http://www.w3.org/2000/svg" xmlns:xlink="http://www.w3.org/1999/xlink">
    <!-- Generator: Sketch 48.1 (47250) - http://www.bohemiancoding.com/sketch -->
    <title>Kinh doanh va khoi nghiep</title>
    <desc>Created with Sketch.</desc>
    <defs></defs>
    <g id="Template1-Copy" stroke="none" stroke-width="1" fill="none" fill-rule="evenodd" transform="translate(-420.000000, -409.000000)">
        <g id="Kinh-doanh-va-khoi-nghiep" transform="translate(416.000000, 405.000000)">
            <rect id="Rectangle-3-Copy-12" x="0" y="0" width="24" height="24"></rect>
            <path d="M19.375,13.8130625 C19.7201875,13.8130625 20,13.53325 20,13.1880625 L20,9.0630625 C20,7.6845625 18.8785,6.56309375 17.5,6.56309375 L14.8101875,6.56309375 L14.8101875,5.74825 C14.8101875,4.80115625 14.0396875,4.03065625 13.0925937,4.03065625 L10.9074062,4.03065625 C9.9603125,4.03065625 9.1898125,4.80115625 9.1898125,5.74825 L9.1898125,6.5630625 L6.5,6.5630625 C5.1215,6.5630625 4,7.6845625 4,9.0630625 L4,16.3443125 C4,17.7228125 5.1215,18.8443125 6.5,18.8443125 L17.5,18.8443125 C18.8785,18.8443125 20,17.7228125 20,16.3443125 C20,15.999125 19.7201875,15.7193125 19.375,15.7193125 C19.0298125,15.7193125 18.75,15.999125 18.75,16.3443125 C18.75,17.0335625 18.18925,17.5943125 17.5,17.5943125 L6.5,17.5943125 C5.81075,17.5943125 5.25,17.0335625 5.25,16.3443125 L5.25,11.9056562 L11.40625,11.9056562 L11.40625,12.8443125 C11.40625,13.1895 11.6860625,13.4693125 12.03125,13.4693125 C12.3764375,13.4693125 12.65625,13.1895 12.65625,12.8443125 L12.65625,11.9056562 L18.75,11.9056562 L18.75,13.1880625 C18.75,13.53325 19.0298125,13.8130625 19.375,13.8130625 Z M10.4398125,5.74825 C10.4398125,5.49040625 10.6495625,5.28065625 10.9074062,5.28065625 L13.0925937,5.28065625 C13.3504375,5.28065625 13.5601875,5.49040625 13.5601875,5.74825 L13.5601875,6.5630625 L10.4398125,6.5630625 L10.4398125,5.74825 Z M5.25,10.6556875 L5.25,9.06309375 C5.25,8.37384375 5.81075,7.81309375 6.5,7.81309375 L17.5,7.81309375 C18.18925,7.81309375 18.75,8.37384375 18.75,9.06309375 L18.75,10.6556875 L5.25,10.6556875 Z" id="Shape" fill="#9B9B9B" fill-rule="nonzero"></path>
        </g>
    </g>
</svg>