<?xml version="1.0" encoding="UTF-8"?>
<svg width="12px" height="18px" viewBox="0 0 12 18" version="1.1" xmlns="http://www.w3.org/2000/svg" xmlns:xlink="http://www.w3.org/1999/xlink">
    <!-- Generator: Sketch 48.1 (47250) - http://www.bohemiancoding.com/sketch -->
    <title>Cong nghe thong tin</title>
    <desc>Created with Sketch.</desc>
    <defs></defs>
    <g id="Template1-Copy" stroke="none" stroke-width="1" fill="none" fill-rule="evenodd" transform="translate(-422.000000, -278.000000)">
        <g id="Cong-nghe-thong-tin" transform="translate(416.000000, 275.000000)">
            <rect id="Rectangle-3-Copy-9" x="0" y="0" width="24" height="24"></rect>
            <path d="M16.8823711,10.2190547 C16.86975,10.205625 16.8565664,10.1927227 16.8428906,10.1803477 L9.48848438,3.51725391 C9.4824375,3.51176953 9.47628516,3.50639062 9.4700625,3.50111719 C8.83577344,2.96544141 7.97398828,2.84991797 7.22097656,3.19958203 C6.46803516,3.54921094 6.00024609,4.28221875 6.00024609,5.11239844 L6.00024609,6.448125 C6.00024609,6.83639062 6.315,7.15114453 6.70326563,7.15114453 C7.09149609,7.15114453 7.40628516,6.83639062 7.40628516,6.448125 L7.40628516,5.11239844 C7.40628516,4.69611328 7.71776953,4.51913672 7.81318359,4.47480469 C7.90785938,4.43085937 8.23920703,4.30879687 8.55491016,4.56867187 L15.8752148,11.2009336 C16.1462695,11.505457 16.0370039,11.8485117 15.9963281,11.9478281 C15.9558984,12.0465469 15.7930547,12.3676992 15.385207,12.388582 L12.8194336,12.388582 C12.5782266,12.388582 12.3538594,12.5121914 12.2250469,12.7161328 C12.0962695,12.9200391 12.0810117,13.1758008 12.1846172,13.3935937 L14.6431289,18.5607187 C14.6438672,18.5622656 14.6446055,18.5638477 14.6453438,18.5653945 C14.73,18.7400156 14.7406875,18.9368555 14.6754023,19.1196328 C14.6101172,19.302375 14.4771563,19.4479219 14.3010234,19.5294141 C13.9482656,19.6925391 13.5245625,19.5412617 13.3547227,19.1920195 L10.8910781,13.8851836 C10.7774531,13.6403906 10.5337148,13.482293 10.2638555,13.4782852 C9.99455859,13.4756836 9.7456875,13.6250977 9.62485547,13.8664102 L8.47619531,16.1598281 C8.40029297,16.2351328 8.25207422,16.2902578 8.11710938,16.2902578 C8.11605469,16.2902578 8.11496484,16.2902578 8.113875,16.2902227 C7.7791875,16.288043 7.40625,15.9698789 7.40625,15.5169258 L7.40625,9.9631875 C7.40625,9.57492187 7.09146094,9.26016797 6.70323047,9.26016797 C6.31496484,9.26016797 6.00021094,9.57492187 6.00021094,9.9631875 L6.00021094,15.5169609 C6.00021094,16.1006602 6.22637109,16.6500117 6.63699609,17.0637656 C7.03243359,17.4621914 7.56737109,17.6927461 8.10462891,17.6962969 C8.10853125,17.6962969 8.11239844,17.696332 8.11630078,17.696332 C8.59702734,17.6962969 9.24629297,17.5016719 9.64092188,16.954043 C9.66285938,16.9235977 9.68233594,16.8914297 9.69914063,16.8578555 L10.2294727,15.7990547 L12.0816445,19.7887969 C12.0829102,19.7915039 12.0841758,19.7942109 12.0854766,19.7968828 C12.4488516,20.5541836 13.2141328,21 14.0077852,20.9999648 C14.3048203,20.9999297 14.6059336,20.937457 14.891332,20.8055859 C15.4127695,20.5643437 15.8063086,20.1336094 15.9995625,19.5925898 C16.1924648,19.0524492 16.1612813,18.4708594 15.9117773,17.9545898 L13.9324805,13.7945859 L15.4003594,13.7945859 C15.4091133,13.7945859 15.417832,13.7944102 15.4265859,13.7940937 C16.2615469,13.7629102 16.9784531,13.2596836 17.2974609,12.4806914 C17.6182617,11.6974453 17.4592148,10.8308437 16.8823711,10.2190547 Z" id="Shape" fill="#9B9B9B" fill-rule="nonzero"></path>
        </g>
    </g>
</svg>