<?xml version="1.0" encoding="UTF-8"?>
<svg width="16px" height="16px" viewBox="0 0 16 16" version="1.1" xmlns="http://www.w3.org/2000/svg" xmlns:xlink="http://www.w3.org/1999/xlink">
    <!-- Generator: Sketch 48.1 (47250) - http://www.bohemiancoding.com/sketch -->
    <title>Phat trien ban than</title>
    <desc>Created with Sketch.</desc>
    <defs></defs>
    <g id="Template1-Copy" stroke="none" stroke-width="1" fill="none" fill-rule="evenodd" transform="translate(-139.000000, -409.000000)">
        <g id="Phat-trien-ban-than" transform="translate(135.000000, 404.000000)">
            <rect id="Rectangle-3-Copy-4" x="0" y="0" width="24" height="24"></rect>
            <path d="M19.3407563,8.20065497 C19.3288109,8.18711891 19.3162729,8.17414425 19.3032047,8.16173099 L16.6973879,5.68612865 C16.2317349,5.24374269 15.6215828,5.00009357 14.9792749,5.00009357 L12.2715945,5.00009357 C12.2669786,5.00003119 12.2623626,5.00006238 12.2577154,5.00009357 L11.6221442,5.00009357 C11.6146589,4.99996881 11.6071735,4.99996881 11.5996881,5.00009357 L9.0045692,5.00009357 C8.36447563,5.00009357 7.75578947,5.24230799 7.29066667,5.68207407 L4.66984795,8.16035867 C4.65674854,8.17270955 4.64417934,8.18568421 4.63220273,8.19915789 C4.27745809,8.59834698 4.07039376,9.08368031 4.01534503,9.58401559 C4.00670565,9.62540351 4.00212086,9.6682885 4.00212086,9.71226511 C4.00212086,9.72302534 4.00240156,9.7337232 4.00293177,9.74432749 C3.97916569,10.2733879 4.12431969,10.8105887 4.44338402,11.2730604 L10.4676803,20.1923587 C10.4731384,20.2004055 10.4787212,20.2083275 10.4845536,20.2160936 C10.8377388,20.6897622 11.3773723,20.963384 11.9672827,20.9685926 C11.9728655,20.9687485 11.9784795,20.9688421 11.9841248,20.9688421 C11.9842807,20.9688421 11.9844366,20.9688421 11.9845926,20.9688421 C11.9847485,20.9688421 11.9849045,20.9688421 11.9850604,20.9688421 C11.9907368,20.9688421 11.9964133,20.9687485 12.0020585,20.9685926 C12.5918752,20.9632281 13.1314152,20.6895439 13.4844756,20.2158441 C13.4902768,20.208078 13.4958596,20.2001559 13.5012865,20.1921404 L17.2679922,14.613692 C17.4607407,14.3282495 17.385575,13.9406004 17.1001326,13.7478519 C16.8146277,13.5550409 16.4270097,13.630269 16.2342924,13.9157115 L13.0569357,18.6213957 L15.1222144,10.3358596 L18.6229396,10.3358596 C18.5898168,10.4144873 18.5482417,10.4907446 18.4980273,10.5632593 C18.496655,10.5652242 18.4953138,10.5671891 18.4939727,10.569154 L17.9818168,11.3276413 C17.7890682,11.6130838 17.8642339,12.0007329 18.1496764,12.1934815 C18.4352125,12.3861988 18.822768,12.3110019 19.0155166,12.0256218 L19.5259883,11.2695984 C20.1785887,10.3233528 20.1027057,9.06191033 19.3407563,8.20065497 Z M11.9406784,6.30738402 L13.5527173,9.08860819 L10.3710565,9.08860819 L11.9406784,6.30738402 Z M5.54850682,9.04619103 L8.14768031,6.58836647 C8.38022612,6.36845224 8.68460039,6.24734503 9.00463158,6.24734503 L10.5423158,6.24734503 L8.93879142,9.08863938 L5.51376218,9.08863938 C5.52499025,9.0742924 5.5365614,9.06013255 5.54850682,9.04619103 Z M5.47511891,10.5720858 L5.47109552,10.5662222 C5.42025731,10.4928031 5.37824561,10.4155478 5.34490448,10.3358908 L8.81709162,10.3358908 L10.9037037,18.609575 L5.47511891,10.5720858 Z M11.981037,17.7808811 L10.103423,10.335922 L13.8368187,10.335922 L11.981037,17.7808811 Z M14.9943392,9.08863938 L13.3474932,6.24734503 L14.9793372,6.24734503 C15.3004288,6.24734503 15.6055205,6.36916959 15.838347,6.59036257 L18.4226121,9.04547368 C18.4346823,9.05966472 18.4463782,9.07404288 18.4576998,9.08863938 L14.9943392,9.08863938 Z" id="Shape" fill="#9B9B9B" fill-rule="nonzero"></path>
        </g>
    </g>
</svg>