<?xml version="1.0" encoding="UTF-8"?>
<svg width="18px" height="16px" viewBox="0 0 18 16" version="1.1" xmlns="http://www.w3.org/2000/svg" xmlns:xlink="http://www.w3.org/1999/xlink">
    <!-- Generator: Sketch 48.1 (47250) - http://www.bohemiancoding.com/sketch -->
    <title>Suc khoe va the thao</title>
    <desc>Created with Sketch.</desc>
    <defs></defs>
    <g id="Template1-Copy" stroke="none" stroke-width="1" fill="none" fill-rule="evenodd" transform="translate(-419.000000, -324.000000)">
        <g id="Suc-khoe-va-the-thao" transform="translate(416.000000, 319.000000)">
            <rect id="Rectangle-3-Copy-10" x="0" y="0" width="24" height="24"></rect>
            <path d="M19.5821484,6.41236719 C18.697793,5.51683203 17.4783633,5.023625 16.1484375,5.023625 C13.8233438,5.023625 12.6211758,6.21999219 12.0221133,7.22359766 C12.0146602,7.23604297 12.0072773,7.24852344 12,7.26096875 C11.9927227,7.24852344 11.9853398,7.23604297 11.9778867,7.22359766 C11.3788242,6.21999219 10.1766563,5.023625 7.8515625,5.023625 C6.52163672,5.023625 5.30220703,5.51683203 4.41785156,6.41240234 C3.49028906,7.35174219 3,8.63758203 3,10.1309141 C3,13.3019375 5.81886328,15.4043867 8.30585156,17.2593359 C9.54507422,18.1835938 10.7155664,19.0566289 11.4522656,19.9719219 C11.5857187,20.1377539 11.7871289,20.2341875 12,20.2341875 C12.2128711,20.2341875 12.4142813,20.1377539 12.5477695,19.9719922 C12.9266836,19.5011797 13.4533945,19.0005898 14.205457,18.3965703 C14.5081875,18.1533945 14.5564922,17.7108125 14.3133164,17.4080469 C14.0701758,17.1053516 13.6275937,17.0569766 13.3248281,17.3001523 C12.79425,17.7263164 12.3602812,18.1117344 12.0003164,18.4779922 C11.2055039,17.6677461 10.1995078,16.9174063 9.14661328,16.1321211 C6.81610547,14.3938906 4.40625,12.596457 4.40625,10.1309141 C4.40625,7.95178906 5.82301172,6.429875 7.8515625,6.429875 C9.17058984,6.429875 10.1445586,6.92610547 10.7463281,7.90475 C11.2241016,8.68159766 11.2984219,9.49022656 11.2989141,9.49521875 C11.3271094,9.86151172 11.6324766,10.1458906 11.9998242,10.1458906 C12.3672422,10.1458906 12.6725742,9.86460547 12.7007695,9.4983125 C12.7015078,9.49022656 12.7758281,8.68159766 13.2536016,7.90475 C13.8554414,6.92610547 14.8294102,6.429875 16.1484375,6.429875 C18.1769883,6.429875 19.59375,7.95178906 19.59375,10.1309141 C19.59375,12.1713125 17.9325469,13.7532734 16.1373633,15.1588555 C15.8316445,15.3982344 15.7778203,15.8401836 16.0172344,16.1459375 C16.256543,16.4516563 16.6985273,16.5054805 17.0043164,16.2660664 C17.8582617,15.5974297 18.9406172,14.6938789 19.7367656,13.6328281 C20.5867734,12.4999883 21,11.3544922 21,10.1309141 C21,8.63758203 20.5097109,7.35174219 19.5821484,6.41236719 Z" id="Shape" fill="#9B9B9B" fill-rule="nonzero"></path>
        </g>
    </g>
</svg>