<?xml version="1.0" encoding="utf-8"?>
<!-- Generator: Adobe Illustrator 19.0.0, SVG Export Plug-In . SVG Version: 6.00 Build 0)  -->
<svg version="1.1" id="Layer_1" xmlns="http://www.w3.org/2000/svg" xmlns:xlink="http://www.w3.org/1999/xlink" x="0px" y="0px"
	 viewBox="-279 373 51.2 47" style="enable-background:new -279 373 51.2 47;" xml:space="preserve">
<style type="text/css">
	.st0{opacity:0.8;fill:#D9D9D8;enable-background:new    ;}
	.st1{fill:#F7F8F8;}
	.st2{fill:#37C2F2;}
	.st3{fill:#E1E1E0;}
</style>
<path id="XMLID_25_" class="st0" d="M-261.3,420c-0.4,0-0.8,0-1.2,0c-3.8-0.2-7.4-0.7-10.9-2.4c-0.7-0.4-1.7-0.9-1.5-1.7
	c0.2-1.1,1.3-1,2.2-1c0.3,0,0.6,0,0.8,0c1.8-0.1,3.5,0.6,5.3,0.9c9,1.4,17.4,0.3,24.6-5.9c1.1-0.9,2.1-1.9,3-2.9
	c0.2-0.1,0.3,0,0.2,0.2c-2.7,5.3-6.7,9-12.1,11.3c-2,0.8-4.1,1.4-6.4,1.5C-258.6,420-260,420-261.3,420z"/>
<path id="XMLID_31_" class="st1" d="M-279.1,408.2c0-0.1,0-0.2,0-0.2c0.1-2.2,1-3.8,3-4.7c0.5-0.2,0.4-0.5,0.2-0.9
	c-0.4-0.8-0.7-1.7-1-2.6s-0.3-1.8,0-2.7c0.3-0.8,0.2-1.6-0.3-2.3c-0.6-1-0.9-2-1.2-3.1c-0.4-1.5-0.1-2.9,0.7-4.2
	c0.4-0.6,0.5-1.2,0.4-1.9c-0.6-3.4,0.2-6.5,1.9-9.3c1.6-2.8,4.7-3.1,7.2-1c1.3,1.1,2.4,2.5,3.8,3.5c1.5,1.1,3,2,4.7,2.6
	c1.6,0.6,1.6,0.6,2.4-1c1.9-3.7,4.9-6.2,9-7.1c2.6-0.6,5.3-0.5,7.8,0.6c1.2,0.5,2.4,0.5,3.6-0.1c1.3-0.6,2.6-0.9,4.1-0.7
	c2.6,0.3,3.9,1.5,4.4,4.1c0.2,1,0.3,2,0.5,3.1c0.5,2.4-0.1,4.7-1.7,6.6c-1.2,1.4-1.8,2.9-2,4.7c-0.7,4.8-2.4,9.3-5.3,13.2
	c-0.4,0.5-0.5,1.2-1,1.6c-0.5,0-0.6,0.5-0.9,0.8c-3.4,4-7.7,6.6-12.7,8.1c-5.8,1.8-11.7,1.3-17.5,0.1c-0.9-0.2-1.7-0.2-2.6-0.5
	c-0.3-0.3-0.7-0.4-1-0.5c-1.1-0.4-2.2-0.8-3.3-1.5C-277.9,412-279,410.4-279.1,408.2z"/>
<path id="XMLID_26_" class="st2" d="M-265.3,404.8c-0.7-0.2-1.4-0.3-2.1-0.6c-2.7-0.9-4.4-2.8-5.4-5.4c-0.2-0.5-0.2-0.9,0.2-1.2
	c0.3-0.3,0.7-0.3,1.1-0.1c0.9,0.5,1.8,0.9,3.1,0.7c-0.6-0.5-1-0.8-1.5-1.1c-2-1.7-3.5-3.7-4.4-6.2c-0.2-0.5-0.3-1,0.1-1.3
	c0.5-0.4,0.9-0.2,1.4,0.1c0.7,0.4,1.3,0.9,2.4,0.9c-1.4-1.9-2.7-3.7-2.9-6c0-2.2,0.5-4.4,1.8-6.4c1.3,1.4,2.6,2.6,4.1,3.8
	c3.5,2.8,7.6,4.2,11.9,5.1c0.7,0.2,0.9-0.1,1-0.8c0.4-4.4,3.4-7.9,7.7-8.9c2.5-0.5,4.7,0.3,6.8,1.4c0.8,0.4,1.4,0.4,2.2,0.1
	c1.3-0.5,2.5-1,3.8-1.5c0.4-0.2,0.9-0.3,1.2,0.1c0.4,0.4,0.3,0.8,0.1,1.2c-0.5,0.8-1,1.5-1.4,2.3c0.7,0.1,1.4-0.6,1.9,0.1
	c0.5,0.8-0.1,1.5-0.4,2.2c-0.5,1-1.2,1.9-2.2,2.5c-0.7,0.4-0.9,1-0.9,1.8c-0.5,9.6-4.6,17.1-13,21.9c-4.1,2.4-8.6,3-13.3,2.6
	c-2.9-0.2-5.7-0.5-8.5-1.3c-1.3-0.4-2.6-0.9-3.7-1.7c-0.5-0.3-1-0.7-0.8-1.3c0.3-0.6,0.8-0.8,1.5-0.8c2.6,0,5.1-0.5,7.5-1.7
	c0.2-0.1,0.4-0.2,0.5-0.3C-265.4,405-265.4,404.9-265.3,404.8z"/>
<path id="XMLID_24_" class="st3" d="M-238.8,407.2c-0.1-0.1-0.2-0.2-0.2-0.2c0.2-0.2,0.2-0.7,0.7-0.5
	C-238.5,406.8-238.6,407-238.8,407.2z"/>
</svg>
